<?xml version="1.0" encoding="UTF-8"?>
<svg xmlns="http://www.w3.org/2000/svg" xmlns:xlink="http://www.w3.org/1999/xlink" width="193pt" height="193pt" viewBox="0 0 193 193" version="1.1">
<g id="surface1">
<path style=" stroke:none;fill-rule:evenodd;fill:rgb(100%,100%,100%);fill-opacity:1;" d="M 0 0.242188 L 192.757813 0.242188 L 192.757813 193 L 0 193 L 0 0.242188 "/>
<path style="fill:none;stroke-width:13.8917;stroke-linecap:butt;stroke-linejoin:miter;stroke:rgb(13.699341%,12.199402%,12.5%);stroke-opacity:1;stroke-miterlimit:2.6131;" d="M 1780.251434 1056.903861 C 1790.445644 1061.13932 1796.632207 1059.139242 1804.803138 1059.139242 C 1816.942808 1056.903861 1823.12937 1056.903861 1827.098108 1050.982062 C 1835.26904 1042.785664 1835.26904 1034.589267 1835.26904 1028.667468 C 1835.26904 1016.274829 1833.284671 1006.078354 1827.098108 1000.195772 C 1823.12937 993.960236 1816.942808 991.999375 1806.787507 985.803056 " transform="matrix(0.100394,0,0,-0.0996055,0,193)"/>
<path style="fill:none;stroke-width:13.8917;stroke-linecap:butt;stroke-linejoin:miter;stroke:rgb(13.699341%,12.199402%,12.5%);stroke-opacity:1;stroke-miterlimit:2.6131;" d="M 1806.787507 985.803056 L 982.107061 685.320778 " transform="matrix(0.100394,0,0,-0.0996055,0,193)"/>
<path style="fill:none;stroke-width:13.8917;stroke-linecap:butt;stroke-linejoin:miter;stroke:rgb(13.699341%,12.199402%,12.5%);stroke-opacity:1;stroke-miterlimit:2.6131;" d="M 982.107061 685.320778 C 967.710658 679.085241 959.81209 681.085319 951.641159 685.320778 " transform="matrix(0.100394,0,0,-0.0996055,0,193)"/>
<path style="fill:none;stroke-width:13.8917;stroke-linecap:butt;stroke-linejoin:miter;stroke:rgb(13.699341%,12.199402%,12.5%);stroke-opacity:1;stroke-miterlimit:2.6131;" d="M 951.641159 685.320778 L 114.548678 983.802978 " transform="matrix(0.100394,0,0,-0.0996055,0,193)"/>
<path style="fill:none;stroke-width:13.8917;stroke-linecap:butt;stroke-linejoin:miter;stroke:rgb(13.699341%,12.199402%,12.5%);stroke-opacity:1;stroke-miterlimit:2.6131;" d="M 114.548678 983.802978 C 100.424639 991.999375 90.269339 1000.195772 86.33951 1010.35303 C 82.098407 1022.471149 86.33951 1038.824726 96.49481 1050.982062 C 110.57994 1059.139242 126.960712 1056.903861 141.045842 1054.903783 " transform="matrix(0.100394,0,0,-0.0996055,0,193)"/>
<path style="fill:none;stroke-width:13.8917;stroke-linecap:butt;stroke-linejoin:miter;stroke:rgb(13.699341%,12.199402%,12.5%);stroke-opacity:1;stroke-miterlimit:2.6131;" d="M 141.045842 1054.903783 L 959.81209 874.073219 L 1747.801163 1054.903783 L 1780.251434 1056.903861 " transform="matrix(0.100394,0,0,-0.0996055,0,193)"/>
<path style=" stroke:none;fill-rule:evenodd;fill:rgb(13.699341%,12.199402%,12.5%);fill-opacity:1;" d="M 163.234375 90.960938 L 165.898438 90.34375 L 165.898438 81.433594 L 167.511719 89.949219 L 170.570313 89.527344 L 170.570313 72.132813 L 167.9375 72.328125 L 167.9375 81.039063 L 166.492188 72.554688 L 163.234375 73.144531 L 163.234375 90.960938 "/>
<path style=" stroke:none;fill-rule:evenodd;fill:rgb(13.699341%,12.199402%,12.5%);fill-opacity:1;" d="M 121.425781 100.261719 L 121.425781 79.015625 L 117.972656 79.636719 L 116.527344 91.972656 L 114.714844 79.832031 L 111.03125 80.648438 L 111.03125 102.679688 L 114.089844 102.089844 L 114.089844 91.550781 L 115.308594 101.664063 L 117.773438 101.078125 L 118.792969 90.761719 L 118.792969 100.878906 L 121.425781 100.261719 "/>
<path style=" stroke:none;fill-rule:evenodd;fill:rgb(13.699341%,12.199402%,12.5%);fill-opacity:1;" d="M 128.167969 78.003906 L 128.167969 80.421875 L 125.707031 80.84375 L 125.707031 87.726563 L 128.167969 87.503906 L 128.167969 89.949219 L 125.707031 90.34375 L 125.707031 97.226563 L 128.167969 96.414063 L 128.167969 98.632813 L 122.875 100.066406 L 122.875 78.820313 L 128.167969 78.003906 "/>
<path style=" stroke:none;fill-rule:evenodd;fill:rgb(13.699341%,12.199402%,12.5%);fill-opacity:1;" d="M 136.328125 76.796875 L 136.328125 96.832031 L 133.464844 97.617188 L 131.625 87.726563 L 131.625 98.042969 L 128.992188 98.433594 L 128.992188 78.003906 L 131.820313 77.386719 L 134.089844 86.910156 L 134.089844 76.992188 L 136.328125 76.796875 "/>
<path style=" stroke:none;fill-rule:evenodd;fill:rgb(13.699341%,12.199402%,12.5%);fill-opacity:1;" d="M 141.425781 95.820313 L 141.425781 78.398438 L 143.039063 78.203125 L 143.039063 75.980469 L 136.921875 76.796875 L 136.921875 79.015625 L 138.761719 78.820313 L 138.761719 96.414063 L 141.425781 95.820313 "/>
<path style=" stroke:none;fill-rule:evenodd;fill:rgb(13.699341%,12.199402%,12.5%);fill-opacity:1;" d="M 167.511719 99.867188 C 167.3125 101.273438 164.878906 102.902344 162.839844 105.714844 C 161.621094 106.949219 160.996094 108.355469 160.371094 109.757813 C 160.175781 110.773438 159.976563 112.007813 159.582031 113.019531 C 161.394531 110.574219 162.640625 109.167969 166.71875 106.332031 C 167.511719 105.320313 168.53125 104.308594 168.957031 103.097656 C 168.957031 104.703125 168.957031 105.714844 168.757813 106.53125 C 168.335938 107.738281 167.9375 108.972656 166.917969 109.757813 C 166.292969 110.996094 165.898438 111.585938 164.878906 112.007813 C 164.054688 113.019531 162.839844 113.808594 161.621094 114.621094 C 160.996094 115.042969 159.976563 116.054688 158.957031 117.066406 C 158.335938 117.851563 157.738281 118.667969 157.3125 119.679688 C 156.917969 120.296875 156.296875 121.113281 156.097656 122.125 C 156.917969 121.113281 158.136719 120.296875 158.957031 119.679688 C 161.195313 118.078125 162.214844 117.460938 164.453125 116.449219 C 165.898438 115.828125 166.917969 114.425781 167.3125 113.808594 C 167.3125 114.820313 166.71875 116.644531 166.292969 117.851563 C 165.472656 119.484375 164.253906 120.886719 163.234375 121.507813 C 161.621094 122.714844 160.796875 123.136719 157.9375 124.347656 C 156.917969 124.738281 156.097656 125.160156 155.503906 125.75 C 154.679688 126.566406 153.660156 127.183594 153.464844 127.972656 C 153.035156 128.390625 152.441406 129.207031 152.015625 129.796875 C 153.464844 129.402344 154.257813 128.984375 155.699219 128.390625 C 157.539063 127.382813 158.957031 126.957031 160.996094 125.949219 C 162.214844 125.359375 162.839844 124.738281 163.660156 124.148438 C 163.660156 124.738281 162.839844 126.566406 162.214844 127.578125 C 161.394531 128.984375 160.371094 129.992188 158.957031 131.007813 C 157.9375 131.230469 156.097656 132.015625 154.679688 132.4375 C 152.640625 132.832031 151.421875 133.027344 149.777344 134.042969 C 148.761719 134.855469 147.117188 136.679688 146.523438 137.890625 C 147.738281 137.695313 148.761719 136.679688 150.800781 136.488281 C 152.839844 135.667969 153.859375 135.472656 155.074219 135.472656 C 155.898438 135.277344 156.917969 135.050781 157.9375 134.460938 C 157.738281 135.472656 156.71875 136.488281 156.296875 137.074219 C 155.699219 137.890625 155.074219 138.703125 153.464844 139.097656 C 152.640625 139.71875 151.621094 139.914063 150.175781 140.113281 C 147.9375 140.730469 146.917969 140.730469 144.679688 141.742188 C 143.265625 141.9375 142.445313 142.136719 141 143.566406 C 140.40625 144.15625 140.40625 144.382813 139.78125 144.972656 C 141 145.167969 142.445313 144.773438 144.058594 144.578125 C 145.078125 144.382813 146.917969 144.15625 148.960938 143.765625 C 150.175781 143.566406 151.195313 142.949219 151.820313 142.136719 L 150.601563 144.578125 C 149.976563 145.167969 149.382813 145.984375 148.136719 146.800781 C 147.738281 147.191406 146.097656 147.808594 144.679688 148.007813 C 143.863281 148.203125 142.445313 148.429688 141 148.429688 L 142.644531 151.242188 L 138.167969 154.894531 L 133.863281 150.84375 C 132.046875 152.050781 131.625 152.25 129.78125 153.066406 L 131.625 158.9375 L 126.523438 161.355469 L 123.269531 156.523438 C 121.230469 157.308594 120.832031 157.53125 118.792969 158.320313 L 119.1875 164.195313 L 113.894531 165.824219 L 111.429688 160.566406 C 109.617188 160.960938 108.371094 160.960938 106.554688 161.582031 L 106.132813 167.035156 L 100.835938 167.847656 L 99.191406 161.972656 C 97.976563 162.171875 96.359375 162.171875 94.320313 161.972656 L 92.875 167.847656 L 86.757813 167.035156 L 86.558594 161.355469 C 84.519531 160.960938 83.898438 160.960938 82.085938 160.566406 L 79.621094 165.824219 L 74.324219 163.996094 L 74.324219 158.125 C 72.679688 157.730469 71.886719 157.308594 70.445313 156.71875 L 66.5625 161.15625 L 61.691406 158.9375 L 63.503906 153.066406 C 61.691406 152.25 61.070313 152.050781 59.226563 150.652344 L 54.949219 154.695313 L 50.246094 151.042969 L 53.304688 146.179688 C 52.289063 145.167969 50.476563 143.765625 49.652344 142.753906 L 44.554688 145.984375 L 40.675781 141.542969 L 44.355469 136.878906 C 42.910156 135.277344 42.316406 134.460938 41.496094 132.832031 L 35.972656 135.277344 L 32.914063 130.609375 L 37.417969 126.566406 C 36.59375 125.160156 36.199219 124.347656 35.378906 122.519531 L 29.261719 122.910156 L 27.617188 118.078125 L 32.515625 115.042969 C 31.894531 113.21875 31.695313 112.007813 31.101563 110.179688 L 25.179688 109.984375 L 24.359375 105.125 L 29.855469 102.902344 L 29.855469 101.273438 L 41.496094 105.515625 C 43.335938 114.425781 46.792969 123.53125 55.148438 132.832031 C 61.691406 140.335938 66.988281 143.144531 74.523438 146.800781 C 82.085938 150.03125 91.035156 151.042969 94.09375 151.464844 C 97.382813 151.660156 106.132813 151.464844 112.875 149.019531 C 119.8125 146.800781 127.972656 142.949219 134.683594 136.488281 C 136.328125 135.277344 137.941406 133.644531 139.582031 131.820313 C 139.582031 131.625 138.960938 133.027344 138.761719 134.855469 C 138.5625 137.695313 138.761719 137.074219 138.960938 140.113281 C 138.960938 142.136719 138.367188 143.144531 138.761719 143.960938 C 139.78125 143.144531 140.800781 141.9375 141 139.324219 C 141 136.488281 140.40625 135.867188 140.605469 133.644531 C 140.800781 132.242188 141.425781 129.601563 142.246094 128.390625 C 142.445313 127.382813 143.039063 126.761719 143.664063 126.367188 C 143.863281 126.367188 143.464844 128.390625 143.664063 129.402344 C 144.058594 130.609375 144.285156 132.4375 144.484375 134.460938 C 144.484375 136.289063 144.285156 137.496094 144.285156 138.3125 C 144.878906 137.496094 146.324219 135.472656 146.523438 133.644531 C 146.917969 132.4375 146.917969 131.230469 146.523438 129.601563 C 145.898438 127.382813 145.304688 125.75 145.699219 123.53125 C 145.699219 121.902344 147.34375 119.679688 147.9375 118.273438 C 147.9375 118.273438 148.136719 120.296875 148.363281 121.703125 C 148.5625 122.910156 149.582031 124.738281 149.976563 126.761719 C 150.175781 128.390625 149.976563 129.402344 149.976563 130.609375 C 150.601563 129.796875 150.996094 128.984375 151.195313 127.972656 C 151.621094 126.761719 151.820313 125.75 151.621094 124.347656 C 151.421875 122.714844 149.976563 119.289063 149.976563 117.261719 C 149.582031 114.820313 150.601563 111.78125 150.996094 110.773438 C 150.996094 110.574219 151.195313 112.203125 151.621094 113.609375 C 152.015625 114.820313 152.839844 115.828125 153.464844 116.84375 C 154.257813 119.089844 154.257813 120.886719 154.679688 122.320313 C 155.273438 121.113281 155.699219 118.667969 155.699219 116.84375 C 155.898438 115.4375 155.273438 113.808594 154.058594 111.585938 C 153.464844 109.757813 152.214844 105.9375 152.214844 105.320313 L 154.257813 104.703125 C 154.679688 105.515625 156.097656 107.738281 156.71875 109.367188 C 157.738281 110.996094 157.9375 113.21875 157.9375 113.410156 C 158.5625 111.585938 158.761719 110.574219 158.761719 109.757813 C 158.761719 108.972656 158.957031 107.960938 158.761719 106.722656 C 158.761719 105.320313 157.738281 103.914063 156.917969 103.691406 L 161.394531 102.089844 C 161.394531 102.902344 161.195313 102.902344 161.394531 103.691406 C 161.621094 103.296875 161.820313 102.679688 162.214844 101.890625 L 167.511719 99.867188 "/>
<path style=" stroke:none;fill-rule:evenodd;fill:rgb(13.699341%,12.199402%,12.5%);fill-opacity:1;" d="M 173.855469 80.027344 L 173.855469 88.316406 L 171.195313 89.132813 L 171.195313 72.132813 L 173.855469 71.539063 L 173.855469 78.003906 L 175.894531 71.316406 L 178.726563 70.921875 L 176.492188 78.820313 L 178.332031 87.726563 L 175.667969 87.925781 L 173.855469 80.027344 "/>
<path style=" stroke:none;fill-rule:evenodd;fill:rgb(13.699341%,12.199402%,12.5%);fill-opacity:1;" d="M 100.835938 83.261719 C 100.835938 84.691406 100.835938 99.25 100.835938 103.691406 C 100.835938 104.308594 100.835938 104.925781 99.816406 105.125 L 96.359375 105.9375 L 93.300781 105.125 C 92.480469 104.703125 92.480469 103.914063 92.480469 103.296875 L 92.480469 83.457031 C 92.679688 82.445313 92.875 82.25 93.699219 82.050781 L 99.191406 82.050781 C 100.214844 82.25 100.835938 82.445313 100.835938 83.261719 Z M 97.382813 102.902344 L 97.382813 85.480469 C 97.382813 85.085938 97.382813 84.46875 96.558594 84.46875 L 96.132813 84.46875 C 95.738281 84.890625 95.738281 85.085938 95.738281 85.480469 L 95.738281 102.902344 C 95.738281 103.097656 95.738281 103.296875 96.359375 103.296875 L 96.558594 103.296875 C 97.15625 103.296875 97.382813 103.296875 97.382813 102.902344 "/>
<path style=" stroke:none;fill-rule:evenodd;fill:rgb(13.699341%,12.199402%,12.5%);fill-opacity:1;" d="M 61.890625 79.636719 L 61.890625 96.414063 C 61.890625 97.226563 61.691406 97.84375 60.871094 98.238281 L 54.128906 96.414063 L 54.128906 76.601563 L 60.246094 77.386719 C 61.265625 77.808594 61.890625 77.808594 61.890625 79.636719 Z M 58.832031 94.808594 L 58.832031 80.226563 C 58.832031 79.832031 58.832031 79.636719 58.207031 79.636719 L 57.1875 79.410156 L 57.1875 95.007813 L 58.207031 95.402344 C 58.832031 95.402344 58.832031 95.402344 58.832031 94.808594 "/>
<path style=" stroke:none;fill-rule:evenodd;fill:rgb(13.699341%,12.199402%,12.5%);fill-opacity:1;" d="M 102.253906 81.660156 L 102.253906 104.703125 L 105.3125 103.914063 L 105.3125 97.03125 L 108.371094 96.414063 C 109.617188 96.214844 109.8125 95.820313 109.8125 94.808594 L 109.8125 82.671875 C 109.8125 81.660156 109.390625 80.84375 108.171875 80.84375 Z M 105.3125 83.878906 L 105.3125 94.191406 L 106.753906 93.996094 C 107.152344 93.796875 107.152344 93.796875 107.152344 93.179688 L 107.152344 84.269531 C 107.152344 83.679688 107.152344 83.679688 106.753906 83.679688 L 105.3125 83.878906 "/>
<path style=" stroke:none;fill-rule:evenodd;fill:rgb(13.699341%,12.199402%,12.5%);fill-opacity:1;" d="M 147.738281 94.191406 L 147.738281 75.167969 L 153.464844 74.578125 C 153.464844 74.578125 153.464844 74.351563 153.859375 74.578125 C 154.257813 74.578125 154.257813 74.773438 154.679688 75.167969 C 154.679688 75.785156 154.679688 75.980469 154.679688 76.375 L 154.679688 82.25 C 154.679688 82.671875 154.257813 83.0625 154.058594 83.261719 C 153.660156 83.261719 153.464844 83.679688 153.464844 83.679688 C 153.660156 83.679688 153.660156 83.878906 153.859375 83.878906 C 154.257813 84.074219 154.679688 84.46875 154.679688 84.890625 L 154.679688 91.773438 C 154.679688 92.363281 154.257813 92.785156 153.859375 92.984375 Z M 150.601563 85.703125 L 150.601563 91.773438 L 151.621094 91.550781 C 151.621094 91.550781 151.820313 91.351563 151.820313 91.15625 L 151.820313 85.902344 C 151.820313 85.480469 151.621094 85.703125 151.621094 85.480469 C 151.621094 85.480469 151.421875 85.480469 151.195313 85.480469 Z M 150.601563 76.796875 L 150.601563 83.0625 L 151.421875 83.0625 C 151.820313 82.867188 151.820313 82.671875 151.820313 82.25 L 151.820313 77.191406 C 151.820313 76.796875 151.820313 76.796875 151.421875 76.796875 L 150.601563 76.796875 "/>
<path style=" stroke:none;fill-rule:evenodd;fill:rgb(13.699341%,12.199402%,12.5%);fill-opacity:1;" d="M 160.597656 73.5625 L 163.234375 90.960938 L 160.371094 91.550781 L 160.175781 88.316406 L 157.9375 88.9375 L 157.738281 91.972656 L 154.878906 92.785156 L 156.523438 74.152344 Z M 159.777344 85.902344 L 158.136719 86.492188 L 158.761719 78.820313 Z M 159.777344 85.902344 "/>
<path style=" stroke:none;fill-rule:evenodd;fill:rgb(13.699341%,12.199402%,12.5%);fill-opacity:1;" d="M 86.164063 81.039063 L 89.222656 81.433594 L 89.222656 101.664063 L 91.855469 102.285156 L 91.855469 104.925781 L 86.164063 103.691406 L 86.164063 81.039063 "/>
<path style=" stroke:none;fill-rule:evenodd;fill:rgb(13.699341%,12.199402%,12.5%);fill-opacity:1;" d="M 70.046875 78.820313 L 73.105469 79.214844 L 74.324219 91.972656 L 75.34375 79.636719 L 78.601563 79.832031 L 76.164063 101.46875 L 71.660156 100.65625 L 70.046875 78.820313 "/>
<path style=" stroke:none;fill-rule:evenodd;fill:rgb(13.699341%,12.199402%,12.5%);fill-opacity:1;" d="M 82.480469 83.261719 L 82.480469 89.949219 L 85.34375 90.34375 L 85.34375 93.179688 L 82.480469 92.785156 L 82.480469 100.460938 L 85.34375 101.078125 L 85.34375 103.296875 L 79.421875 102.089844 L 79.421875 80.027344 L 85.34375 81.039063 L 85.34375 83.679688 L 82.480469 83.261719 "/>
<path style=" stroke:none;fill-rule:evenodd;fill:rgb(13.699341%,12.199402%,12.5%);fill-opacity:1;" d="M 66.167969 80.84375 L 66.167969 87.109375 L 69.226563 87.726563 L 69.226563 90.144531 L 66.167969 89.753906 L 66.167969 96.832031 L 69.226563 97.421875 L 69.226563 100.066406 L 63.304688 98.433594 L 63.304688 77.808594 L 69.226563 78.820313 L 69.226563 81.234375 L 66.167969 80.84375 "/>
<path style=" stroke:none;fill-rule:evenodd;fill:rgb(13.699341%,12.199402%,12.5%);fill-opacity:1;" d="M 45.96875 75.363281 L 48.632813 75.785156 L 48.632813 95.820313 L 44.949219 94.585938 L 43.535156 84.890625 L 43.535156 94.191406 L 40.871094 93.796875 L 40.871094 74.578125 L 44.355469 75.167969 L 45.96875 85.480469 L 45.96875 75.363281 "/>
<path style=" stroke:none;fill-rule:evenodd;fill:rgb(13.699341%,12.199402%,12.5%);fill-opacity:1;" d="M 34.355469 73.761719 L 32.515625 91.972656 L 34.953125 92.5625 L 35.378906 88.515625 L 36.992188 88.9375 L 37.21875 92.984375 L 40.050781 93.574219 L 38.238281 74.152344 Z M 35.972656 81.039063 L 35.578125 86.296875 L 36.59375 86.492188 Z M 35.972656 81.039063 "/>
<path style=" stroke:none;fill-rule:evenodd;fill:rgb(13.699341%,12.199402%,12.5%);fill-opacity:1;" d="M 15.578125 71.121094 L 13.765625 87.925781 L 16.203125 88.515625 L 16.398438 85.085938 L 18.042969 85.28125 L 18.4375 88.9375 L 21.101563 89.332031 L 19.261719 71.539063 Z M 17.222656 77.191406 L 16.597656 82.671875 L 17.84375 82.867188 Z M 17.222656 77.191406 "/>
<path style=" stroke:none;fill-rule:evenodd;fill:rgb(13.699341%,12.199402%,12.5%);fill-opacity:1;" d="M 29.0625 72.945313 L 29.0625 91.15625 L 31.894531 91.773438 L 31.894531 73.339844 L 29.0625 72.945313 "/>
<path style=" stroke:none;fill-rule:evenodd;fill:rgb(13.699341%,12.199402%,12.5%);fill-opacity:1;" d="M 25.378906 85.085938 C 25.378906 84.46875 25.179688 83.878906 25.179688 83.457031 C 24.984375 83.261719 24.984375 83.0625 24.359375 82.445313 C 23.960938 82.25 23.734375 82.050781 23.339844 81.433594 C 23.140625 81.039063 22.714844 80.648438 22.121094 79.832031 C 21.921875 79.214844 21.699219 78.820313 21.699219 78.003906 L 21.699219 73.957031 C 21.699219 73.144531 21.699219 72.75 22.121094 72.554688 C 22.320313 72.132813 22.515625 72.328125 23.140625 72.328125 L 26.398438 72.554688 C 27.417969 72.75 27.617188 72.945313 27.8125 73.144531 C 28.238281 73.761719 28.238281 73.957031 28.238281 74.578125 L 28.238281 79.015625 L 25.378906 78.621094 L 25.378906 75.167969 C 25.378906 74.773438 25.378906 74.578125 24.984375 74.578125 C 24.160156 74.578125 24.359375 74.773438 24.359375 74.96875 L 24.359375 78.203125 C 24.359375 78.820313 24.753906 79.015625 24.984375 79.636719 C 25.179688 79.832031 26 80.421875 26.199219 80.648438 C 26.398438 81.039063 26.792969 81.433594 27.023438 81.855469 C 27.417969 82.25 27.8125 82.445313 27.8125 82.867188 C 28.039063 83.261719 28.238281 83.878906 28.238281 84.46875 L 28.238281 89.949219 C 28.039063 90.34375 27.617188 90.539063 26.792969 90.539063 L 22.714844 89.949219 C 21.921875 89.753906 21.699219 89.132813 21.699219 88.316406 L 21.699219 83.679688 L 24.359375 84.269531 L 24.359375 87.503906 C 24.359375 87.925781 24.558594 87.925781 24.984375 87.925781 C 25.378906 88.121094 25.378906 87.726563 25.378906 87.726563 L 25.378906 85.085938 "/>
<path style=" stroke:none;fill-rule:evenodd;fill:rgb(13.699341%,12.199402%,12.5%);fill-opacity:1;" d="M 43.929688 75.167969 L 31.894531 73.339844 L 27.8125 70.921875 L 29.855469 66.0625 L 35.972656 67.496094 L 38.238281 63.023438 L 33.339844 58.980469 L 36.199219 54.34375 L 42.089844 56.957031 L 44.949219 52.910156 L 41.496094 48.050781 L 44.554688 44.226563 L 46.992188 45.433594 C 46.992188 44.421875 46.992188 43.804688 47.191406 42.792969 C 47.8125 41.386719 48.632813 38.941406 52.089844 37.734375 C 51.890625 37.929688 51.492188 38.941406 51.070313 39.757813 C 50.476563 41.585938 50.671875 42.597656 50.671875 43.410156 C 50.871094 46.445313 50.476563 47.851563 50.246094 48.863281 C 50.871094 48.46875 51.492188 48.050781 52.089844 47.261719 C 52.515625 47.035156 52.910156 46.25 53.304688 45.238281 C 53.535156 44.226563 53.535156 42.597656 53.535156 41.78125 C 53.535156 40.179688 53.730469 37.539063 54.753906 35.90625 C 55.347656 34.699219 55.96875 33.6875 57.386719 33.097656 C 57.8125 32.675781 59.226563 32.085938 60.671875 31.664063 C 59.425781 33.296875 59.425781 33.492188 59.027344 34.308594 C 59.027344 34.898438 58.832031 35.710938 58.832031 36.527344 C 58.40625 38.746094 57.8125 39.757813 57.8125 40.574219 C 57.8125 40.96875 56.167969 44.003906 56.167969 44.003906 C 56.988281 43.410156 58.40625 41.976563 59.027344 41.78125 C 59.226563 41.386719 60.046875 40.574219 60.671875 39.757813 C 61.691406 38.550781 61.691406 37.34375 61.890625 35.710938 C 62.085938 33.6875 62.484375 32.675781 63.109375 31.46875 C 63.503906 30.257813 64.75 28.824219 65.96875 28.238281 C 67.1875 28.039063 68.007813 27.621094 69.421875 27.816406 C 68.828125 28.039063 68.402344 28.628906 68.007813 29.050781 C 67.808594 29.640625 67.1875 30.457031 66.789063 31.273438 C 66.363281 33.492188 66.5625 35.121094 64.75 37.929688 C 65.34375 37.929688 65.96875 37.34375 66.167969 37.144531 C 66.988281 36.527344 68.402344 35.316406 68.828125 34.699219 C 70.046875 33.296875 70.046875 32.675781 70.640625 31.074219 C 71.066406 30.0625 71.464844 29.25 72.285156 28.433594 C 72.90625 27.621094 74.324219 27.027344 75.34375 26.605469 C 76.363281 26.605469 76.984375 26.410156 77.582031 26.605469 C 76.761719 27.421875 76.363281 27.621094 75.738281 28.824219 C 75.34375 29.640625 74.945313 30.847656 74.324219 31.46875 C 73.5 32.675781 72.285156 33.492188 72.085938 34.109375 C 72.679688 34.109375 73.925781 33.6875 74.523438 33.492188 C 75.34375 33.296875 75.96875 32.871094 76.761719 32.28125 C 77.382813 31.664063 78.007813 31.273438 78.796875 29.640625 C 79.421875 28.238281 80.640625 26.605469 82.878906 25.59375 C 83.699219 25.398438 85.34375 25.398438 86.363281 25.59375 C 85.539063 26.015625 84.917969 26.605469 84.519531 27.027344 C 83.898438 27.816406 83.304688 28.824219 82.679688 29.640625 C 82.085938 30.652344 81.066406 31.074219 80.839844 31.46875 C 81.460938 31.273438 82.480469 31.074219 83.105469 31.074219 C 83.699219 30.847656 84.519531 30.652344 85.34375 30.257813 C 85.738281 29.640625 87.578125 29.050781 88.402344 29.050781 C 90.441406 28.628906 91.035156 28.628906 92.28125 28.628906 C 94.09375 28.824219 94.519531 28.824219 95.738281 29.25 C 94.914063 30.257813 93.699219 30.847656 92.875 31.074219 C 91.261719 31.664063 90.640625 31.863281 88.996094 32.085938 C 87.777344 32.28125 87.183594 32.28125 86.164063 32.28125 C 85.34375 32.28125 84.71875 32.28125 83.699219 32.28125 C 82.878906 32.085938 81.460938 32.28125 80.839844 32.675781 C 81.261719 33.296875 82.480469 33.097656 83.5 33.296875 C 84.519531 33.492188 85.144531 33.6875 85.738281 34.308594 C 86.558594 34.699219 87.578125 34.898438 87.976563 35.121094 C 87.777344 35.710938 86.363281 36.132813 85.34375 36.328125 C 83.898438 36.328125 82.679688 36.132813 81.660156 35.90625 C 80.640625 35.316406 79.820313 34.898438 78.796875 34.699219 C 77.78125 34.308594 76.761719 34.308594 75.738281 34.308594 C 74.523438 34.699219 72.90625 35.316406 72.085938 35.710938 C 72.484375 35.90625 73.5 36.132813 74.324219 36.132813 C 74.71875 36.132813 75.144531 36.132813 76.164063 36.328125 C 76.984375 36.328125 77.183594 36.328125 77.78125 36.722656 C 78.601563 37.144531 79.027344 37.34375 79.820313 37.539063 C 81.066406 37.734375 80.839844 37.734375 82.28125 37.734375 C 81.660156 38.941406 80.640625 39.167969 80.046875 39.558594 C 79.222656 39.757813 78.007813 39.757813 76.984375 39.757813 C 75.96875 39.757813 74.945313 39.558594 73.699219 38.941406 C 72.085938 38.351563 70.640625 38.15625 69.421875 37.929688 C 68.828125 37.929688 67.808594 37.929688 66.988281 37.929688 C 66.363281 38.15625 65.96875 38.351563 65.542969 38.746094 C 64.949219 38.941406 64.324219 39.167969 64.125 39.558594 C 65.34375 39.757813 66.167969 39.757813 67.808594 39.757813 C 68.402344 39.757813 70.046875 40.179688 71.066406 40.769531 C 72.085938 41.386719 73.105469 41.386719 73.699219 41.585938 C 74.324219 41.78125 74.523438 41.78125 75.96875 41.585938 C 75.738281 41.976563 75.34375 42.398438 74.945313 42.597656 C 74.324219 43.214844 73.699219 43.410156 73.105469 43.804688 C 71.464844 44.003906 70.445313 44.003906 69.621094 44.003906 C 68.828125 44.003906 68.402344 44.003906 67.808594 43.804688 C 66.363281 43.410156 65.96875 43.214844 64.949219 42.597656 C 62.710938 41.386719 61.070313 41.78125 59.425781 42.597656 C 59.226563 42.792969 57.613281 44.003906 56.988281 44.617188 C 57.613281 44.617188 58.207031 44.421875 59.226563 44.421875 C 60.445313 44.421875 60.871094 44.226563 62.085938 44.421875 C 63.304688 44.617188 64.324219 45.238281 65.769531 45.828125 C 67.1875 46.25 68.007813 46.25 68.828125 46.25 C 68.402344 46.839844 68.007813 47.035156 67.382813 47.261719 C 65.96875 48.050781 65.769531 48.46875 64.125 48.46875 C 63.304688 48.46875 62.085938 48.46875 60.671875 48.46875 C 59.027344 47.851563 58.207031 47.261719 56.988281 47.035156 C 54.328125 46.839844 52.710938 48.050781 50.871094 50.492188 C 51.492188 50.492188 52.515625 50.070313 53.109375 49.875 C 54.328125 50.070313 54.753906 50.070313 55.96875 50.492188 C 56.988281 50.6875 57.8125 50.6875 58.832031 50.6875 C 60.671875 51.082031 60.046875 51.082031 61.070313 50.886719 C 60.445313 51.503906 57.613281 53.921875 55.769531 55.550781 C 53.929688 57.96875 52.515625 59.398438 51.890625 60.609375 C 50.246094 62.4375 49.226563 64.039063 47.8125 66.480469 C 46.792969 68.28125 45.96875 69.910156 45.375 71.316406 C 44.554688 72.75 44.128906 73.957031 43.929688 75.167969 "/>
<path style=" stroke:none;fill-rule:evenodd;fill:rgb(13.699341%,12.199402%,12.5%);fill-opacity:1;" d="M 156.296875 74.152344 L 160.175781 73.5625 C 160.371094 73.144531 161.621094 71.738281 162.015625 70.921875 C 162.640625 70.109375 163.234375 69.292969 163.660156 67.890625 C 164.054688 65.472656 163.234375 62.015625 161.621094 60.414063 C 161.621094 60.609375 161.621094 61.621094 161.394531 63.449219 C 160.796875 64.65625 160.597656 64.460938 160.175781 65.863281 C 160.175781 66.0625 159.582031 67.070313 159.355469 68.703125 C 159.355469 69.292969 159.15625 70.527344 158.761719 71.316406 L 157.9375 68.898438 C 156.917969 66.679688 157.738281 64.234375 158.136719 62.015625 C 158.761719 57.96875 158.761719 53.527344 155.898438 50.6875 C 156.097656 52.09375 156.097656 52.515625 155.898438 54.34375 C 155.699219 55.746094 155.273438 56.5625 154.878906 57.96875 C 154.878906 57.96875 154.679688 59.597656 154.878906 60.609375 C 154.878906 62.4375 154.878906 63.449219 154.878906 63.449219 C 154.058594 61.621094 153.464844 61.003906 153.234375 59.796875 C 152.640625 57.96875 152.640625 56.957031 152.839844 55.355469 C 153.035156 54.34375 153.464844 50.886719 153.464844 49.679688 C 153.464844 47.851563 153.464844 47.261719 152.640625 46.023438 C 151.621094 44.421875 150.601563 43.214844 149.382813 42.203125 C 149.582031 43.214844 149.976563 44.421875 149.976563 45.433594 C 150.175781 46.25 149.976563 47.460938 149.976563 48.46875 C 149.382813 52.515625 149.582031 52.09375 149.976563 55.355469 C 149.382813 54.539063 147.9375 53.105469 147.117188 51.699219 C 146.097656 49.285156 146.917969 44.226563 146.097656 41.78125 C 145.304688 40.179688 143.664063 38.351563 142.445313 37.734375 C 142.445313 38.941406 142.644531 39.953125 142.84375 41.386719 C 143.039063 43.605469 142.445313 46.023438 143.664063 48.273438 C 143.265625 48.050781 142.019531 46.445313 141.625 46.25 C 140.800781 45.238281 140.40625 44.421875 139.980469 43.605469 C 139.1875 41.976563 139.1875 39.757813 138.960938 38.15625 C 138.761719 36.328125 137.941406 34.308594 136.722656 33.296875 C 135.703125 32.085938 134.285156 31.273438 132.644531 31.273438 C 133.664063 32.28125 134.285156 32.675781 134.484375 33.886719 C 135.109375 35.121094 135.109375 35.90625 135.109375 36.921875 C 135.308594 38.15625 135.308594 39.757813 136.128906 41.976563 C 136.128906 41.976563 133.664063 40.378906 132.445313 38.746094 C 131.625 37.539063 131.226563 35.90625 131.03125 34.308594 C 131.03125 32.480469 130.210938 31.074219 128.992188 30.0625 C 127.972656 28.824219 126.722656 28.238281 124.484375 28.039063 C 125.308594 28.824219 126.328125 30.652344 126.722656 32.085938 C 127.148438 33.6875 127.742188 34.503906 128.367188 35.515625 C 128.566406 35.90625 129.585938 37.734375 129.78125 37.734375 C 128.566406 37.539063 126.949219 36.921875 125.707031 35.316406 C 123.46875 32.480469 123.46875 30.847656 121.851563 28.824219 C 120.011719 27.027344 117.546875 26.214844 116.132813 26.410156 C 116.953125 27.226563 117.972656 28.433594 118.792969 30.257813 C 120.011719 32.085938 120.832031 33.097656 121.425781 34.109375 C 120.011719 33.492188 119.1875 33.296875 117.773438 32.675781 C 116.527344 32.28125 116.132813 31.664063 115.933594 31.074219 C 115.933594 31.074219 114.714844 29.25 114.089844 28.433594 C 113.070313 27.421875 111.429688 26.410156 111.230469 26.410156 C 110.015625 25.789063 109.191406 25.398438 107.152344 25.398438 C 107.578125 25.789063 108.597656 27.027344 109.390625 28.039063 C 109.8125 28.628906 110.210938 29.445313 111.65625 30.257813 C 112.449219 30.847656 113.070313 31.074219 113.894531 31.46875 C 113.269531 31.46875 111.855469 31.273438 111.230469 31.074219 C 110.636719 31.074219 106.132813 29.050781 104.289063 29.050781 C 102.875 28.824219 102.054688 28.824219 98.597656 30.0625 C 98.992188 30.652344 101.460938 31.46875 104.089844 31.863281 C 107.152344 32.28125 108.371094 32.085938 111.03125 32.085938 C 112.253906 32.28125 112.875 32.480469 113.070313 33.097656 C 112.449219 33.296875 111.65625 33.296875 110.636719 33.296875 C 109.617188 33.296875 108.792969 33.6875 107.972656 33.6875 C 107.152344 34.308594 105.933594 34.699219 105.539063 35.121094 C 106.132813 35.316406 107.152344 35.515625 107.972656 35.515625 C 109.390625 35.90625 110.410156 36.132813 111.855469 35.515625 C 113.070313 35.316406 114.714844 34.109375 116.132813 33.6875 C 117.546875 33.6875 117.546875 33.886719 118.566406 34.308594 C 119.8125 34.503906 120.605469 34.898438 120.832031 35.316406 C 120.011719 35.515625 119.8125 35.316406 118.566406 35.515625 C 116.953125 35.515625 115.734375 36.527344 114.089844 37.34375 C 114.089844 37.34375 112.449219 37.539063 111.429688 37.734375 C 112.675781 39.167969 114.914063 39.167969 116.753906 39.167969 C 117.972656 38.941406 118.792969 38.746094 120.210938 38.351563 C 121.230469 37.539063 123.664063 36.722656 126.128906 37.539063 C 127.148438 37.929688 128.367188 38.550781 129.386719 39.558594 C 128.167969 39.363281 127.148438 39.363281 125.707031 39.558594 C 124.484375 39.757813 123.269531 40.179688 122.050781 40.96875 C 121.230469 41.191406 120.605469 41.386719 120.210938 41.585938 C 119.390625 41.78125 119.1875 41.78125 118.171875 41.78125 C 118.792969 42.203125 119.1875 42.597656 120.011719 42.988281 C 120.832031 43.410156 121.851563 43.804688 123.269531 43.804688 C 124.914063 43.804688 126.523438 42.988281 127.148438 42.597656 C 128.167969 42.203125 128.566406 41.976563 129.1875 41.78125 C 129.78125 41.585938 130.410156 41.386719 131.226563 41.386719 C 131.820313 41.386719 132.644531 41.386719 133.664063 41.78125 C 134.285156 42.203125 135.109375 42.398438 135.902344 43.410156 C 135.308594 43.214844 133.664063 43.410156 132.644531 43.410156 C 131.625 43.410156 130.410156 43.804688 128.992188 44.226563 C 128.367188 44.617188 128.167969 44.816406 127.148438 45.238281 C 126.523438 45.433594 126.128906 45.433594 125.308594 45.433594 C 125.707031 45.632813 126.128906 46.25 126.722656 46.640625 C 128.765625 47.460938 130.210938 47.460938 131.625 47.261719 C 133.464844 47.035156 134.285156 46.839844 135.902344 46.640625 C 137.347656 46.640625 138.367188 46.640625 139.386719 47.035156 C 140.40625 47.261719 140.800781 47.851563 141.625 48.46875 C 142.445313 49.058594 142.84375 49.679688 143.039063 49.875 C 142.246094 49.679688 141 49.058594 139.980469 49.058594 C 138.761719 48.863281 137.746094 49.058594 136.722656 49.480469 C 135.308594 49.679688 134.285156 49.875 134.089844 49.875 C 133.070313 49.875 132.445313 49.875 131.625 49.875 C 132.246094 50.296875 132.644531 51.503906 134.683594 52.515625 C 136.128906 52.714844 137.347656 52.910156 139.582031 52.910156 C 141.226563 52.910156 142.644531 52.515625 144.058594 52.714844 C 145.078125 52.714844 146.324219 53.332031 147.34375 54.539063 C 147.9375 55.128906 148.960938 55.945313 149.15625 57.152344 C 148.363281 56.957031 147.34375 55.945313 146.917969 55.746094 C 145.304688 55.128906 144.285156 55.128906 143.265625 55.128906 C 142.445313 55.128906 141 55.550781 139.980469 55.550781 C 138.960938 55.550781 138.761719 55.355469 137.941406 55.128906 C 138.367188 56.140625 138.761719 56.957031 139.386719 57.378906 C 140.207031 58.390625 142.445313 58.980469 143.464844 59.175781 C 145.078125 59.398438 146.917969 59.398438 148.363281 59.398438 C 149.582031 59.398438 150.175781 59.597656 151.195313 60.609375 C 152.015625 61.425781 152.640625 62.015625 153.035156 62.828125 C 153.464844 63.644531 153.660156 63.839844 153.859375 64.65625 C 153.464844 64.234375 152.640625 63.644531 151.820313 63.222656 C 150.800781 62.632813 149.382813 62.210938 148.363281 62.210938 C 147.34375 62.210938 146.722656 62.4375 145.699219 62.210938 C 144.679688 62.210938 144.285156 61.621094 143.265625 61.425781 C 143.464844 62.828125 143.664063 63.449219 144.285156 63.839844 C 144.878906 64.851563 146.722656 65.863281 147.9375 65.863281 C 149.15625 66.0625 149.582031 66.0625 150.800781 66.257813 C 152.214844 66.257813 153.660156 66.257813 155.273438 67.890625 C 156.296875 69.292969 156.917969 70.304688 157.3125 71.738281 C 156.097656 71.121094 154.878906 70.304688 153.234375 70.109375 C 151.421875 69.910156 150.601563 69.910156 149.15625 69.292969 C 148.136719 68.703125 147.9375 68.703125 147.34375 68.085938 C 147.34375 68.703125 147.542969 69.714844 147.9375 70.527344 C 148.960938 72.328125 150.800781 73.339844 153.035156 73.761719 C 153.035156 73.761719 156.523438 73.957031 156.296875 74.152344 "/>
</g>
</svg>
